<?xml version="1.0" encoding="UTF-8" standalone="no"?>
<svg width="256px" height="250px" viewBox="0 0 256 250" version="1.1" xmlns="http://www.w3.org/2000/svg" xmlns:xlink="http://www.w3.org/1999/xlink" preserveAspectRatio="xMidYMid">
  <path d="M108.13,216.26A108.13,108.13,0,1,1,216.26,108.13,108.13,108.13,0,0,1,108.13,216.26Zm0-210.34A102.21,102.21,0,1,0,210.34,108.13,102.21,102.21,0,0,0,108.13,5.92Z" style="fill:#76777a"></path>
  <polygon points="108.12 112.87 130.95 73.34 85.3 73.34 108.12 112.87" style="fill:#3b6489"></polygon>
  <polygon points="58.06 115.42 104.37 115.42 81.21 75.32 58.06 115.42" style="fill:#3b6489"></polygon>
  <polygon points="104.03 119.95 58.39 119.95 81.21 159.47 104.03 119.95" style="fill:#003764"></polygon>
  <polygon points="77.46 162.02 54.3 121.92 31.15 162.02 77.46 162.02" style="fill:#003764"></polygon>
  <polygon points="84.97 68.81 131.27 68.81 108.12 28.72 84.97 68.81" style="fill:#7c94ae"></polygon>
  <polygon points="135.03 75.32 111.88 115.42 158.18 115.42 135.03 75.32" style="fill:#3b6489"></polygon>
  <polygon points="157.85 119.95 112.21 119.95 135.03 159.47 157.85 119.95" style="fill:#003764"></polygon>
  <polygon points="161.94 121.92 138.78 162.02 185.1 162.02 161.94 121.92" style="fill:#003764"></polygon>
</svg>
