<svg  width="298px" height="298px" viewBox="0 0 298 273" fill="none" xmlns="http://www.w3.org/2000/svg">
  <g data-bx-workspace="master" xmlns="http://www.w3.org/2000/svg" xmlns:bx="https://boxy-svg.com" fill="none"><g clip-path="url(#clip0_1642_5219)"><path d="M246.761 66.2739C231.26 69.8798 218.639 76.7291 206.734 84.3034C214.308 97.2866 221.882 111.71 229.81 126.849C245.674 119.638 260.46 113.151 273.806 109.898L290.395 142.351C276.334 145.594 261.547 151.728 246.036 158.578C260.46 187.787 275.971 222.406 297.597 273.251H256.854C237.737 229.618 224.038 199.33 211.055 173.001C183.286 185.259 154.801 196.44 126.679 196.44C110.815 196.44 96.0284 193.559 80.1643 188.15L41.2242 273.251H0.47168L61.0472 143.438C86.2886 154.619 105.043 160.743 125.238 160.743C147.952 160.743 171.753 152.091 194.838 141.626C187.626 128.28 180.777 115.307 173.928 103.764C156.26 114.944 137.143 124.321 111.187 124.321C65.0347 124.321 39.7933 96.1991 39.7933 62.2959C39.7742 30.2147 65.0156 0.28949 103.965 0.28949C138.584 0.28949 164.188 20.847 187.989 54.7407C198.806 47.5289 211.065 40.6795 225.126 35.9861L246.761 66.2739ZM110.815 88.9968C127.404 88.9968 141.102 82.51 155.173 73.8482C138.221 50.4098 121.632 36.3486 103.25 36.3486C87.0231 36.3486 78.0083 48.9693 78.0083 62.315C78.0083 76.3761 90.9915 88.9968 110.824 88.9968H110.815Z" fill="#00C48D"></path></g><defs><clipPath id="clip0_1642_5219"><rect width="1326.06" height="273.944" fill="white" transform="translate(0.47168 0.28949)"></rect></clipPath></defs></g>
</svg>
