<?xml version="1.0" encoding="utf-8"?>
<!-- Generator: Adobe Illustrator 19.2.1, SVG Export Plug-In . SVG Version: 6.00 Build 0)  -->
<svg version="1.1" id="layer" xmlns="http://www.w3.org/2000/svg" xmlns:xlink="http://www.w3.org/1999/xlink" x="0px" y="0px"
	 viewBox="0 0 652 652" style="enable-background:new 0 0 652 652;" xml:space="preserve">
<style type="text/css">
	.st0{fill:#E2231A;}
</style>
<path class="st0" d="M26,224.1h43.5v34.1h19.8v-34.1H134v110.6c0,0,2.9,24.6-8,38.7c-13.2,16.3-36.9,14-36.9,14V273H69.3v114.3
	c0,0-16,2.6-32.9-11.2C23.5,365.6,26,334.6,26,334.6V224.1L26,224.1z M466.9,385.3v-18.6h-23.8c0,0-4.6,1.4-8.9-2.9
	c-4.6-4.3-3.7-14-3.7-14v-71.9c0,0,0-7.4,7.4-7.7c8.6-0.3,10,7.7,10,7.7v56.1c-1.7,11.5-11.5,16-11.5,16s30.9,2.3,40.1-3.7
	c11.7-8,12-21.2,12-21.2v-29.5c0-12-4.6-20.6-13.2-28.1c-11.2-9.5-22.1-10-33.5-10.3c-6.9-0.3-30.9-0.3-43,14.3
	c-9.5,11.5-10.3,24.1-10.3,24.1v48.1c0,0,0,14.3,10.6,26.4c14.9,16.9,31.2,15.5,31.2,15.5h36.4V385.3z M356.3,224.1l-41.5,127.5
	V224.1h-41.2v75.3c6.3,3.2,10.6,9.5,10.6,16.9c0,7.4-4.3,13.7-10.6,16.9v52.1h10.3c30.9,0,43.8,1.7,60.7-16
	c6-6.3,11.5-19.5,11.5-19.5l48.7-126h-48.4V224.1z M246.3,316.3c0-7.2,4-13.2,9.7-16.3v-41.5h-41.5V371c0,0-13.7,1.1-16.6-3.7
	c-2.9-4.9-2.3-17.2-2.3-17.2v-91.7h-44.1v91.9c0,0,1.4,17.2,10,25.5c11.7,11.5,28.1,10,28.1,10h24.6v42.7h41.5v-95.7
	C250.3,329.5,246.3,323.5,246.3,316.3z M578.3,385.3v-18.6h-23.8c0,0-4.6,1.4-8.9-2.9c-4.6-4.3-3.7-14-3.7-14v-72.2
	c0,0,0-7.4,7.4-7.7c8.6-0.3,10,7.7,10,7.7v56.1c-1.7,11.5-11.5,16-11.5,16s30.9,2.3,40.1-3.7c11.7-8,12-21.2,12-21.2v-29.5
	c0-12-4.6-20.6-13.2-28.1c-11.2-9.5-22.1-10-33.5-10.3c-6.9-0.3-30.9-0.3-43,14.3c-9.5,11.5-10.3,24.1-10.3,24.1v48.1
	c0,0,0,14.3,10.6,26.4c14.9,16.9,31.2,15.5,31.2,15.5H578.3L578.3,385.3z M605.5,365.3c-2,2-3.2,4.6-3.2,7.7s1.1,5.7,3.2,7.7
	c2,2,4.6,3.2,7.7,3.2c3.2,0,5.4-1.1,7.7-3.2c2-2,3.2-4.6,3.2-7.7c0-2.9-1.1-5.4-3.2-7.7c-2-2-4.6-3.2-7.7-3.2
	C610.1,362.1,607.8,363.3,605.5,365.3z M622.1,382.2c-2.6,2.6-5.4,3.7-8.9,3.7s-6.6-1.1-8.9-3.7c-2.6-2.6-3.7-5.4-3.7-8.9
	c0-3.4,1.1-6.3,3.7-8.9c2.6-2.6,5.4-3.7,8.9-3.7s6.6,1.1,8.9,3.7c2.6,2.6,3.7,5.4,3.7,8.9C625.8,376.4,624.7,379.6,622.1,382.2z
	 M615.5,368.4c-0.6-0.3-1.7-0.6-2.9-0.6h-2v5.2h2.3c1.1,0,1.7,0,2.3-0.3c0.9-0.3,1.4-1.1,1.4-2.3
	C616.4,369.3,616.1,368.7,615.5,368.4z M612.9,366.1c1.7,0,2.9,0.3,3.7,0.6c1.4,0.6,2,1.7,2.3,3.4c0,1.1-0.6,2.3-1.4,2.9
	c-0.6,0.3-1.1,0.6-2,0.6c1.1,0.3,2,0.6,2.3,1.4c0.6,0.9,0.9,1.4,0.9,2.3v1.1v1.1v0.9v0.3h-2.3l0,0c0,0,0,0,0-0.3v-0.6v-1.1
	c0-1.7-0.6-2.6-1.4-3.2c-0.6-0.3-1.4-0.6-2.6-0.6h-2v5.4h-2.6v-13.7h5.2V366.1z"/>
</svg>
